<?xml version="1.0" encoding="utf-8"?>
<svg xmlns="http://www.w3.org/2000/svg" xmlns:xlink="http://www.w3.org/1999/xlink" style="margin: auto; background: rgb(241, 242, 243); display: block; shape-rendering: auto;" width="200px" height="200px" viewBox="0 0 100 100" preserveAspectRatio="xMidYMid">
<g transform="translate(50 50)">
  <g transform="scale(0.7)">
    <g transform="translate(-50 -50)">
      <g>
        <animateTransform attributeName="transform" type="rotate" repeatCount="indefinite" values="0 50 50;360 50 50" keyTimes="0;1" dur="0.6756756756756757s"></animateTransform>
        <path fill-opacity="0.8" fill="#1d3f72" d="M50 50L50 0A50 50 0 0 1 100 50Z"></path>
      </g>
      <g>
        <animateTransform attributeName="transform" type="rotate" repeatCount="indefinite" values="0 50 50;360 50 50" keyTimes="0;1" dur="0.900900900900901s"></animateTransform>
        <path fill-opacity="0.8" fill="#5699d2" d="M50 50L50 0A50 50 0 0 1 100 50Z" transform="rotate(90 50 50)"></path>
      </g>
      <g>
        <animateTransform attributeName="transform" type="rotate" repeatCount="indefinite" values="0 50 50;360 50 50" keyTimes="0;1" dur="1.3513513513513513s"></animateTransform>
        <path fill-opacity="0.8" fill="#d8ebf9" d="M50 50L50 0A50 50 0 0 1 100 50Z" transform="rotate(180 50 50)"></path>
      </g>
      <g>
        <animateTransform attributeName="transform" type="rotate" repeatCount="indefinite" values="0 50 50;360 50 50" keyTimes="0;1" dur="2.7027027027027026s"></animateTransform>
        <path fill-opacity="0.8" fill="#71c2cc" d="M50 50L50 0A50 50 0 0 1 100 50Z" transform="rotate(270 50 50)"></path>
      </g>
    </g>
  </g>
</g>
<!-- [ldio] generated by https://loading.io/ --></svg>